# xmcd CD database file
# Copyright (C) 1997 Ti Kan
#
# Track frame offsets:
#  150
#  20282
#  41405
#  52845
#  67662
#  88802
#  109147
#  130170
#  142600
#  161295
#
# Disc length: 2284 seconds
#
# Revision: 1
# Processed by: cddbd v1.4b41PL1 Copyright (c) Steve Scherf et al.
# Submitted via: CDWizzard Release:4.32
#
DISCID=6d08ea0a
DTITLE=Kitchen of Insanity - Dreamaway Sunday
DYEAR=1900
DGENRE=
TTITLE0=I am in trouble
TTITLE1=Voyage au bout de la nuit
TTITLE2=Days to be loved
TTITLE3=We go on
TTITLE4=Ghosts of feeling
TTITLE5=This city
TTITLE6=Memories
TTITLE7=Into Desire
TTITLE8=Time
TTITLE9=Dreamaway Sunday
EXTD=
EXTT0=
EXTT1=
EXTT2=
EXTT3=
EXTT4=
EXTT5=
EXTT6=
EXTT7=
EXTT8=
EXTT9=
PLAYORDER=
